<svg width="24" height="24" viewBox="0 0 24 24" fill="none" xmlns="http://www.w3.org/2000/svg">
<path fill-rule="evenodd" clip-rule="evenodd" d="M13.2834 1.31306C13.2834 0.972066 13.148 0.645039 12.9069 0.403921C12.6657 0.162803 12.3387 0.0273438 11.9977 0.0273438C11.6567 0.0273438 11.3297 0.162803 11.0886 0.403921C10.8475 0.645039 10.712 0.972066 10.712 1.31306V3.40963C8.87358 3.68605 7.17221 4.54467 5.85779 5.85941C4.54336 7.17414 3.68514 8.8757 3.40915 10.7142H1.30915C0.968159 10.7142 0.641133 10.8497 0.400014 11.0908C0.158896 11.3319 0.0234375 11.6589 0.0234375 11.9999C0.0234375 12.3409 0.158896 12.6679 0.400014 12.9091C0.641133 13.1502 0.968159 13.2856 1.30915 13.2856H3.40572C3.68214 15.1241 4.54076 16.8254 5.8555 18.1399C7.17023 19.4543 8.8718 20.3125 10.7103 20.5885V22.6868C10.7103 23.0278 10.8458 23.3548 11.0869 23.5959C11.328 23.837 11.655 23.9725 11.996 23.9725C12.337 23.9725 12.664 23.837 12.9051 23.5959C13.1463 23.3548 13.2817 23.0278 13.2817 22.6868V20.5902C15.1202 20.3138 16.8215 19.4552 18.1359 18.1404C19.4504 16.8257 20.3086 15.1241 20.5846 13.2856H22.6829C23.0239 13.2856 23.3509 13.1502 23.592 12.9091C23.8331 12.6679 23.9686 12.3409 23.9686 11.9999C23.9686 11.6589 23.8331 11.3319 23.592 11.0908C23.3509 10.8497 23.0239 10.7142 22.6829 10.7142H20.5863C20.31 8.87601 19.4516 7.17484 18.1372 5.86044C16.8228 4.54604 15.1216 3.68767 13.2834 3.41134V1.31306ZM18.1109 11.9896C18.1088 10.7814 17.7488 9.60095 17.0763 8.59723C16.4038 7.5935 15.449 6.81156 14.3324 6.35015C13.2158 5.88874 11.9875 5.76854 10.8026 6.00475C9.61772 6.24095 8.52941 6.82296 7.67509 7.67728C6.82077 8.5316 6.23876 9.61991 6.00255 10.8048C5.76635 11.9897 5.88654 13.218 6.34796 14.3346C6.80937 15.4512 7.59131 16.406 8.59504 17.0785C9.59876 17.751 10.7793 18.111 11.9874 18.1131H12.008C13.6258 18.1103 15.1765 17.4665 16.3204 16.3226C17.4643 15.1787 18.1081 13.6279 18.1109 12.0102V11.9896ZM9.88915 11.9999C9.88915 11.4407 10.1113 10.9044 10.5067 10.5089C10.9022 10.1135 11.4385 9.89135 11.9977 9.89135C12.557 9.89135 13.0933 10.1135 13.4887 10.5089C13.8841 10.9044 14.1063 11.4407 14.1063 11.9999C14.1063 12.5591 13.8841 13.0955 13.4887 13.4909C13.0933 13.8863 12.557 14.1085 11.9977 14.1085C11.4385 14.1085 10.9022 13.8863 10.5067 13.4909C10.1113 13.0955 9.88915 12.5591 9.88915 11.9999Z" fill="#3B82F6"/>
</svg>
