<svg width="32" height="24" viewBox="0 0 32 24" fill="none" xmlns="http://www.w3.org/2000/svg">
<path d="M30.2417 10.2771C30.6211 10.7503 30.8314 11.3651 30.8314 12.0006C30.8314 12.6383 30.6211 13.2508 30.2417 13.724C27.8417 16.6291 22.3788 22.2863 16.0017 22.2863C9.62455 22.2863 4.1617 16.6291 1.7617 13.724C1.37454 13.2335 1.16649 12.6254 1.17198 12.0006C1.17198 11.3651 1.38227 10.7503 1.7617 10.2771C4.1617 7.37199 9.62455 1.71484 16.0017 1.71484C22.3788 1.71484 27.8417 7.37199 30.2417 10.2771Z" stroke="#3B82F6" stroke-width="1.71429" stroke-linecap="round" stroke-linejoin="round"/>
<path d="M16.0011 16.5725C17.2135 16.5725 18.3763 16.0909 19.2336 15.2336C20.0909 14.3763 20.5725 13.2135 20.5725 12.0011C20.5725 10.7887 20.0909 9.62594 19.2336 8.76863C18.3763 7.91132 17.2135 7.42969 16.0011 7.42969C14.7887 7.42969 13.6259 7.91132 12.7686 8.76863C11.9113 9.62594 11.4297 10.7887 11.4297 12.0011C11.4297 13.2135 11.9113 14.3763 12.7686 15.2336C13.6259 16.0909 14.7887 16.5725 16.0011 16.5725Z" stroke="#3B82F6" stroke-width="1.71429" stroke-linecap="round" stroke-linejoin="round"/>
</svg>
