<svg width="26" height="26" viewBox="0 0 26 26" fill="none" xmlns="http://www.w3.org/2000/svg">
<path d="M19.6667 19.6667C18.1939 19.6667 17 20.8606 17 22.3333C17 23.8061 18.1939 25 19.6667 25C21.1394 25 22.3333 23.8061 22.3333 22.3333C22.3333 20.8606 21.1394 19.6667 19.6667 19.6667ZM19.6667 19.6667H9.39193C8.77718 19.6667 8.46924 19.6667 8.21615 19.5573C7.99288 19.4608 7.79918 19.3055 7.65805 19.1074C7.49987 18.8853 7.43625 18.5884 7.31032 18.0007L4.02865 2.6862C3.89978 2.08485 3.83449 1.7845 3.67448 1.5599C3.53335 1.3618 3.33969 1.20588 3.11642 1.1094C2.86327 1 2.55705 1 1.94205 1H1M5 5H22.1643C23.1267 5 23.6074 5 23.9304 5.20048C24.2133 5.37608 24.4204 5.65149 24.5107 5.97201C24.6138 6.33791 24.4814 6.79995 24.2146 7.72461L22.3685 14.1246C22.209 14.6775 22.1292 14.9534 21.9674 15.1585C21.8246 15.3396 21.6363 15.4813 21.4227 15.5684C21.1815 15.6667 20.8948 15.6667 20.3228 15.6667H7.30729M7.66667 25C6.19391 25 5 23.8061 5 22.3333C5 20.8606 6.19391 19.6667 7.66667 19.6667C9.13943 19.6667 10.3333 20.8606 10.3333 22.3333C10.3333 23.8061 9.13943 25 7.66667 25Z" stroke="#3B82F6" stroke-width="2" stroke-linecap="round" stroke-linejoin="round"/>
</svg>
