<svg width="10" height="10" viewBox="0 0 10 10" fill="none" xmlns="http://www.w3.org/2000/svg">
<path d="M3.2526 0.833984H6.7526C8.08594 0.833984 9.16927 1.91732 9.16927 3.25065V6.75065C9.16927 7.39159 8.91466 8.00628 8.46145 8.45949C8.00823 8.91271 7.39354 9.16732 6.7526 9.16732H3.2526C1.91927 9.16732 0.835938 8.08398 0.835938 6.75065V3.25065C0.835938 2.60971 1.09055 1.99502 1.54376 1.54181C1.99698 1.0886 2.61166 0.833984 3.2526 0.833984ZM3.16927 1.66732C2.77145 1.66732 2.38992 1.82535 2.10861 2.10666C1.82731 2.38796 1.66927 2.76949 1.66927 3.16732V6.83398C1.66927 7.66315 2.3401 8.33398 3.16927 8.33398H6.83594C7.23376 8.33398 7.61529 8.17595 7.8966 7.89464C8.1779 7.61334 8.33594 7.23181 8.33594 6.83398V3.16732C8.33594 2.33815 7.6651 1.66732 6.83594 1.66732H3.16927ZM7.1901 2.29232C7.32824 2.29232 7.46071 2.34719 7.55839 2.44487C7.65606 2.54254 7.71094 2.67502 7.71094 2.81315C7.71094 2.95128 7.65606 3.08376 7.55839 3.18144C7.46071 3.27911 7.32824 3.33398 7.1901 3.33398C7.05197 3.33398 6.91949 3.27911 6.82182 3.18144C6.72414 3.08376 6.66927 2.95128 6.66927 2.81315C6.66927 2.67502 6.72414 2.54254 6.82182 2.44487C6.91949 2.34719 7.05197 2.29232 7.1901 2.29232ZM5.0026 2.91732C5.55514 2.91732 6.08504 3.13681 6.47574 3.52751C6.86644 3.91821 7.08594 4.44812 7.08594 5.00065C7.08594 5.55319 6.86644 6.08309 6.47574 6.47379C6.08504 6.86449 5.55514 7.08398 5.0026 7.08398C4.45007 7.08398 3.92017 6.86449 3.52946 6.47379C3.13876 6.08309 2.91927 5.55319 2.91927 5.00065C2.91927 4.44812 3.13876 3.91821 3.52946 3.52751C3.92017 3.13681 4.45007 2.91732 5.0026 2.91732ZM5.0026 3.75065C4.67108 3.75065 4.35314 3.88235 4.11872 4.11677C3.8843 4.35119 3.7526 4.66913 3.7526 5.00065C3.7526 5.33217 3.8843 5.65011 4.11872 5.88453C4.35314 6.11896 4.67108 6.25065 5.0026 6.25065C5.33412 6.25065 5.65207 6.11896 5.88649 5.88453C6.12091 5.65011 6.2526 5.33217 6.2526 5.00065C6.2526 4.66913 6.12091 4.35119 5.88649 4.11677C5.65207 3.88235 5.33412 3.75065 5.0026 3.75065Z" fill="white"/>
</svg>
