<svg width="28" height="26" viewBox="0 0 28 26" fill="none" xmlns="http://www.w3.org/2000/svg">
<path d="M22.3333 6.33333V2.33333C22.3333 1.97971 22.1929 1.64057 21.9428 1.39052C21.6928 1.14048 21.3536 1 21 1H3.66667C2.95942 1 2.28115 1.28095 1.78105 1.78105C1.28095 2.28115 1 2.95942 1 3.66667C1 4.37391 1.28095 5.05219 1.78105 5.55229C2.28115 6.05238 2.95942 6.33333 3.66667 6.33333H23.6667C24.0203 6.33333 24.3594 6.47381 24.6095 6.72386C24.8595 6.97391 25 7.31304 25 7.66667V13M25 13H21C20.2928 13 19.6145 13.281 19.1144 13.781C18.6143 14.2811 18.3333 14.9594 18.3333 15.6667C18.3333 16.3739 18.6143 17.0522 19.1144 17.5523C19.6145 18.0524 20.2928 18.3333 21 18.3333H25C25.3536 18.3333 25.6928 18.1929 25.9428 17.9428C26.1929 17.6928 26.3333 17.3536 26.3333 17V14.3333C26.3333 13.9797 26.1929 13.6406 25.9428 13.3905C25.6928 13.1405 25.3536 13 25 13Z" stroke="#3B82F6" stroke-width="2" stroke-linecap="round" stroke-linejoin="round"/>
<path d="M1 3.66602V22.3327C1 23.0399 1.28095 23.7182 1.78105 24.2183C2.28115 24.7184 2.95942 24.9993 3.66667 24.9993H23.6667C24.0203 24.9993 24.3594 24.8589 24.6095 24.6088C24.8595 24.3588 25 24.0196 25 23.666V18.3327" stroke="#3B82F6" stroke-width="2" stroke-linecap="round" stroke-linejoin="round"/>
</svg>
